<svg xmlns="http://www.w3.org/2000/svg" viewBox="0 0 32 32" role="img" aria-labelledby="title">
  <title>Apple Silicon</title>
  <rect x="7" y="7" width="18" height="18" rx="4" fill="none" stroke="currentColor" stroke-width="2"/>
  <path d="M12 3v4M16 3v4M20 3v4M12 25v4M16 25v4M20 25v4M3 12h4M3 16h4M3 20h4M25 12h4M25 16h4M25 20h4" fill="none" stroke="currentColor" stroke-linecap="round" stroke-width="2"/>
  <path d="M16 11.25c-2.35 0-3.25 1.85-3.25 1.85s-.92-1.1-2.24-.74c.18 1.82 1.56 2.7 1.56 2.7s-.25 2.36 2.03 4.1c.5.38.92.2 1.9-.26.98-.46 1.45-.46 2.43 0 .98.46 1.4.64 1.9.26 1.2-.92 1.73-2.07 1.96-2.84-1.27-.5-1.55-1.73-1.55-1.73s-.1-1.34 1.23-2.05c-.82-1.08-2.05-1.29-2.05-1.29-.93-.1-1.62.6-1.92.6zm.55-1.62c.5-.62.62-1.31.58-1.88-.66.04-1.43.38-1.87.9-.4.46-.7 1.18-.58 1.82.71.05 1.4-.3 1.87-.84z" fill="currentColor"/>
</svg>
